<svg width="31" height="31" viewBox="0 0 31 31" fill="none" xmlns="http://www.w3.org/2000/svg">
<path fill-rule="evenodd" clip-rule="evenodd" d="M16.6 15.49C15.16 14.56 14.35 12.97 14.35 11.02C14.35 7.6 16.72 5.5 20.592 5.5C24.432 5.5 26.832 7.6 26.832 11.02C26.832 14.53 24.432 16.69 20.592 16.69C20.172 16.69 19.842 16.66 19.032 16.57C17.982 17.59 17.382 18.1 16.782 18.58L15.972 17.62C17.052 16.78 17.862 16.06 18.612 15.25C19.512 15.43 19.962 15.49 20.592 15.49C23.742 15.49 25.602 13.84 25.602 11.02C25.602 8.29 23.712 6.7 20.592 6.7C17.412 6.7 15.582 8.29 15.582 11.02C15.582 12.58 16.212 13.78 17.442 14.56C17.262 14.89 17.052 15.13 16.602 15.49H16.6ZM12.19 16.36C12.19 15.01 11.38 14.17 9.93996 14.17C8.49996 14.17 7.68996 15.01 7.68996 16.36C7.68996 17.83 8.49996 18.67 9.93996 18.67C11.38 18.67 12.19 17.83 12.19 16.36ZM5.55996 25.481H4.32996V24.851C4.32996 21.641 5.46996 19.75 7.80996 19.031C6.93996 18.461 6.48996 17.531 6.48996 16.361C6.48996 14.29 7.80996 12.971 9.93996 12.971C12.07 12.971 13.39 14.29 13.39 16.361C13.39 17.501 12.94 18.461 12.1 19.031C14.44 19.75 15.58 21.641 15.58 24.851V25.481H14.35V24.851C14.35 21.491 12.94 19.871 9.93996 19.871C6.99996 19.871 5.55996 21.521 5.55996 24.851V25.481Z" fill="white"/>
</svg>
