<?xml version="1.0" encoding="utf-8"?>
<!-- Generator: Adobe Illustrator 23.0.0, SVG Export Plug-In . SVG Version: 6.00 Build 0)  -->
<svg version="1.1" id="Capa_1" xmlns="http://www.w3.org/2000/svg" xmlns:xlink="http://www.w3.org/1999/xlink" x="0px" y="0px"
	 width="67px" height="67px" viewBox="0 0 67 67" style="enable-background:new 0 0 67 67;" xml:space="preserve">
<style type="text/css">
	.st0{fill:#FFD806;}
	.st1{fill:#474F58;}
	.st2{fill:#FFFFFF;}
	.st3{fill:#F6F6FB;}
	.st4{fill:#00A1C9;}
	.st5{fill:#00C5EA;}
	.st6{fill:#43BBE2;}
	.st7{clip-path:url(#SVGID_2_);}
	.st8{fill:#28BEE3;}
	.st9{fill:#67CAE9;}
	.st10{fill:#282B32;}
	.st11{opacity:0.04;}
	.st12{fill:#53565D;}
	.st13{fill:#70757B;}
	.st14{fill:#D5D6DA;}
	.st15{fill:#6F737C;}
	.st16{fill:#D6D6D8;}
	.st17{fill:#CCCCCC;}
	.st18{clip-path:url(#SVGID_8_);}
	.st19{clip-path:url(#SVGID_10_);}
	.st20{clip-path:url(#SVGID_12_);}
	.st21{clip-path:url(#SVGID_14_);}
	.st22{clip-path:url(#SVGID_16_);}
	.st23{clip-path:url(#SVGID_18_);}
	.st24{clip-path:url(#SVGID_20_);}
	.st25{clip-path:url(#SVGID_22_);}
	.st26{clip-path:url(#SVGID_24_);}
	.st27{clip-path:url(#SVGID_26_);}
	.st28{opacity:0.4;fill:#F6F6FB;}
	.st29{filter:url(#Adobe_OpacityMaskFilter);}
	.st30{fill:url(#SVGID_27_);}
	.st31{opacity:0.2;mask:url(#zQbYNF.tif_1_);}
	.st32{filter:url(#Adobe_OpacityMaskFilter_1_);}
	.st33{fill:url(#SVGID_28_);}
	.st34{opacity:0.2;mask:url(#zQbYNF.tif_2_);}
	.st35{opacity:0.82;}
	.st36{fill:#FFD806;stroke:#FFD806;stroke-miterlimit:10;}
</style>
<g>
	<circle class="st0" cx="33.54" cy="33.54" r="33.54"/>
	<path class="st1" d="M33.54,0H0v33.54C0,15.02,15.02,0,33.54,0z"/>
	<path class="st1" d="M33.54,67.07h33.54V33.54C67.07,52.06,52.06,67.07,33.54,67.07z"/>
	<path class="st1" d="M11.65,19.73l26.75,9.81c0,0,16.01-5.95,6.46-9.81C41.08,18.02,11.65,19.73,11.65,19.73z"/>
	<path class="st2" d="M44.86,19.73L44.86,19.73l15.81-5.92c-1.85-2.54-4.04-4.8-6.51-6.73c-44.78,5.13-42.5,12.65-42.5,12.65
		l0.07,0.03l-0.07-0.03C11.66,19.73,41.09,18.02,44.86,19.73z"/>
	<path class="st2" d="M66.53,27.49l-21.66-7.76c9.52,3.85-6.41,9.79-6.46,9.8l0,0c0,0-18.07,5.99-38.19,7.78
		c1.63,14.54,12.56,26.27,26.7,29.1c0.04-0.02,27.6-14.64,39.97-29.3c0.12-1.18,0.19-2.37,0.19-3.58
		C67.07,31.47,66.89,29.45,66.53,27.49z"/>
	<path class="st1" d="M59.39,26.59c0.57,1.47-1.03,3.5-1.03,3.5l-2.06-0.46c0,0,1.82-2.3,1.25-3.47L59.39,26.59z"/>
	<path class="st1" d="M53.29,32.6l2.27,0.44c-1.24,1.07-3.43,2.62-3.43,2.62l-2.47-0.43L53.29,32.6z"/>
	<polygon class="st1" points="43.99,38.08 46.44,38.64 40.61,41.02 38,40.45 	"/>
	<polygon class="st1" points="30.29,43.14 33.18,43.7 26.7,45.89 23.63,45.3 	"/>
	<polygon class="st1" points="15.3,47.84 18.36,48.55 11.07,50.67 8.23,49.91 	"/>
	<path class="st1" d="M38.21,14.92l1.25,0.74c0,0-1.91,0.8-3.66,1.58l-1.28-0.77C35.87,15.88,38.21,14.92,38.21,14.92z"/>
	<path class="st1" d="M42.75,13.3l1.08,0.73c1.7-0.56,4.08-1.26,4.08-1.26l-1.2-0.61C46.7,12.16,44.45,12.77,42.75,13.3z"/>
	<path class="st1" d="M50.45,11.23l0.95,0.63c2.46-0.53,4.48-0.89,4.48-0.89l-0.65-0.59C55.22,10.38,52.58,10.76,50.45,11.23z"/>
</g>
</svg>
