<svg width="31" height="31" viewBox="0 0 31 31" fill="none" xmlns="http://www.w3.org/2000/svg">
<path fill-rule="evenodd" clip-rule="evenodd" d="M13.65 6.76C9.95996 6.76 6.83996 9.49 6.83996 13.451C6.83996 17.471 9.98996 20.501 13.77 20.501C17.491 20.501 20.581 17.741 20.581 13.811C20.581 9.761 17.461 6.761 13.651 6.761M21.841 13.781C21.841 15.791 21.151 17.531 20.011 18.911L25.861 24.762L24.991 25.662L19.111 19.782C17.671 21.042 15.781 21.762 13.741 21.762C9.29996 21.762 5.57996 18.16 5.57996 13.48C5.57996 8.861 9.29996 5.5 13.68 5.5C18.21 5.5 21.841 9.011 21.841 13.781Z" fill="white"/>
</svg>
