<svg width="31" height="31" viewBox="0 0 31 31" fill="none" xmlns="http://www.w3.org/2000/svg">
<path fill-rule="evenodd" clip-rule="evenodd" d="M15.575 11.106C14.495 11.106 13.745 11.916 13.745 13.056C13.745 14.196 14.495 14.976 15.575 14.976C16.685 14.976 17.465 14.196 17.465 13.056C17.465 11.916 16.685 11.106 15.575 11.106ZM15.575 9.905C17.435 9.905 18.725 11.195 18.725 13.055C18.725 14.885 17.435 16.175 15.575 16.175C13.775 16.175 12.485 14.885 12.485 13.055C12.485 11.195 13.775 9.905 15.575 9.905ZM15.605 23.886C19.535 19.386 21.155 16.116 21.155 12.966C21.155 9.756 19.055 7.355 15.605 7.355C12.155 7.355 10.055 9.755 10.055 12.965C10.055 16.116 11.675 19.386 15.605 23.886ZM22.505 12.966C22.505 16.716 20.345 20.616 16.175 24.906H15.005C10.865 20.616 8.70496 16.716 8.70496 12.966C8.70496 8.735 11.435 6.125 15.605 6.125C19.775 6.125 22.505 8.736 22.505 12.966Z" fill="white"/>
</svg>
